#!OML:ASF E:\emotionWalksFemale\Project 1\Capture day 1\Session 1\Female1.ASF
:FULLY-SPECIFIED
:DEGREES
299
root 9.46537 14.5492 11.0494 32.3516 -76.5702 -32.831
lowerback 11.7831 -0.506673 -0.840315
upperback -4.27743 -0.65879 1.68844
thorax -11.2548 -0.186367 2.45106
lowerneck -5.15813 -5.08138 -6.08004
upperneck 8.64209 -6.90641 5.85725
head 3.83478 -3.3685 2.41461
rclavicle -3.87133e-014 7.95139e-015
rhumerus -55.5988 20.8446 -85.0937
rradius 36.8225
rwrist 34.8607
rhand 1.31108 -53.5367
rfingers 7.12502
rthumb 26.8455 -441.651
lclavicle -3.87133e-014 7.95139e-015
lhumerus -49.6922 3.32553 82.787
lradius 28.2347
lwrist -34.7832
lhand 20.2486 -28.9327
lfingers 7.12502
lthumb 44.7666 -5.34173
rfemur -16.4546 9.27696 29.1936
rtibia 47.7582
rfoot -27.171 -21.1353
rtoes -7.37953
lfemur -21.0463 -5.04303 -21.5183
ltibia 54.5854
lfoot -35.7376 11.7127
ltoes -19.462
300
root 9.47704 14.6221 11.0353 31.6801 -76.8218 -32.2576
lowerback 11.8092 -0.370383 -0.654888
upperback -4.27684 -0.46466 1.4859
thorax -11.281 -0.115157 2.08469
lowerneck -5.01306 -5.14496 -5.88896
upperneck 8.48799 -6.99295 5.70152
head 3.75727 -3.41493 2.33695
rclavicle -2.57426e-014 -1.43125e-014
rhumerus -55.1221 20.3516 -85.0596
rradius 37.569
rwrist 33.991
rhand 1.46293 -53.6889
rfingers 7.12502
rthumb 26.9908 -441.781
lclavicle -2.57426e-014 -1.43125e-014
lhumerus -49.8332 3.08578 82.4201
lradius 28.6923
lwrist -33.3859
lhand 21.1127 -28.9196
lfingers 7.12502
lthumb 45.5702 -5.64824
rfemur -15.7649 9.68222 29.0155
rtibia 46.5113
rfoot -26.5513 -21.1851
rtoes -7.01348
lfemur -20.2398 -4.9856 -21.6501
ltibia 53.118
lfoot -35.206 10.9008
ltoes -16.6459
301
root 9.48663 14.692 11.0211 30.9083 -77.1524 -31.6179
lowerback 11.7915 -0.165476 -0.53071
upperback -4.20192 -0.186965 1.29589
thorax -11.1976 -0.000413759 1.74707
lowerneck -5.16288 -5.32502 -6.10014
upperneck 8.56336 -7.22256 5.80391
head 3.82997 -3.52709 2.38307
rclavicle 1.00386e-014 -5.56597e-015
rhumerus -54.4589 19.5283 -84.7701
rradius 38.155
rwrist 33.2734
rhand 1.47949 -53.7068
rfingers 7.12502
rthumb 27.0067 -441.796
lclavicle 1.00386e-014 -5.56597e-015
lhumerus -49.7414 2.82518 82.2463
lradius 28.9876
lwrist -31.9295
lhand 21.765 -28.8416
lfingers 7.12502
lthumb 46.1756 -5.82057
rfemur -14.9682 10.1377 28.7971
rtibia 45.1831
rfoot -25.9377 -21.2027
rtoes -6.55039
lfemur -19.3079 -4.79721 -21.9066
ltibia 51.4756
lfoot -34.2332 11.661
ltoes -20.7486
302
root 9.49601 14.7597 11.0077 29.5717 -77.4939 -30.3963
lowerback 11.7949 -0.0218649 -0.553358
upperback -4.1646 -0.0138086 1.12729
thorax -11.1631 0.0765979 1.53937
lowerneck -5.34346 -5.48038 -6.88822
upperneck 8.81258 -7.42208 6.361
head 3.9978 -3.62176 2.65803
rclavicle 4.77083e-015 1.59028e-015
rhumerus -53.8938 18.8441 -84.5051
rradius 38.635
rwrist 32.7157
rhand 1.59039 -53.8191
rfingers 7.12502
rthumb 27.1128 -441.892
lclavicle 4.77083e-015 1.59028e-015
lhumerus -49.7885 2.99376 81.9143
lradius 29.1896
lwrist -30.9739
lhand 21.5966 -28.6929
lfingers 7.12502
lthumb 46.0194 -5.60649
rfemur -14.1586 10.456 28.4676
rtibia 43.8171
rfoot -25.2277 -21.3628
rtoes -6.78903
lfemur -18.3277 -4.63714 -22.2831
ltibia 49.7633
lfoot -33.2047 12.3746
ltoes -24.8806
303
root 9.50413 14.837 10.9911 28.6886 -77.739 -29.4903
lowerback 11.7238 0.0738325 -0.551079
upperback -4.22677 0.0991703 0.969777
thorax -11.1933 0.12392 1.34316
lowerneck -5.29992 -5.52596 -7.2349
upperneck 8.94148 -7.49017 6.6139
head 4.05681 -3.65628 2.78599
rclavicle -1.0138e-014 1.27222e-014
rhumerus -53.6176 18.4302 -84.592
rradius 39.2948
rwrist 31.8037
rhand 1.8656 -54.106
rfingers 7.12502
rthumb 27.3761 -442.138
lclavicle -1.0138e-014 1.27222e-014
lhumerus -50.0236 3.00866 81.5274
lradius 29.4821
lwrist -29.9333
lhand 21.2225 -28.4371
lfingers 7.12502
lthumb 45.6722 -5.20735
rfemur -13.5211 10.4003 28.1976
rtibia 42.3952
rfoot -24.4955 -21.1633
rtoes -6.9184
lfemur -17.5104 -4.45083 -22.4378
ltibia 48.0191
lfoot -32.4643 12.0685
ltoes -25.4464
304
root 9.51036 14.9076 10.9693 28.0946 -77.9534 -28.7939
lowerback 11.5852 0.17022 -0.659966
upperback -4.32428 0.201995 0.88522
thorax -11.2229 0.177249 1.29131
lowerneck -5.36955 -5.55001 -7.50046
upperneck 9.22295 -7.52982 6.78558
head 4.17316 -3.67569 2.87371
rclavicle 1.2921e-014 2.38542e-015
rhumerus -53.2538 17.8931 -84.6156
rradius 39.806
rwrist 30.9546
rhand 2.06105 -54.4001
rfingers 7.12502
rthumb 27.563 -442.402
lclavicle 1.2921e-014 2.38542e-015
lhumerus -50.2593 2.6859 81.3674
lradius 29.7575
lwrist -28.4433
lhand 21.0248 -28.5478
lfingers 7.12502
lthumb 45.4886 -5.24332
rfemur -12.8959 11.396 28.1189
rtibia 40.952
rfoot -23.8089 -21.5907
rtoes -5.49183
lfemur -16.8372 -4.29908 -22.4946
ltibia 46.3105
lfoot -31.8257 11.8802
ltoes -26.2685
305
root 9.5164 14.9836 10.9539 27.2707 -78.24 -27.8369
lowerback 11.4159 0.291029 -0.701556
upperback -4.42948 0.344112 0.757269
thorax -11.243 0.242445 1.14635
lowerneck -5.4808 -5.60868 -7.87342
upperneck 9.53726 -7.60785 6.98264
head 4.31485 -3.71554 2.98254
rclavicle 2.49972e-014 7.95139e-015
rhumerus -52.8529 17.1749 -84.599
rradius 40.1614
rwrist 30.4167
rhand 2.30514 -54.6222
rfingers 7.12502
rthumb 27.7964 -442.587
lclavicle 2.49972e-014 7.95139e-015
lhumerus -50.437 2.65468 81.1427
lradius 29.9674
lwrist -27.3946
lhand 20.8636 -28.5505
lfingers 7.12502
lthumb 45.3387 -5.1856
rfemur -12.2836 12.2993 27.9386
rtibia 39.4582
rfoot -22.8578 -22.177
rtoes -5.91331
lfemur -16.1118 -4.29188 -22.6835
ltibia 44.5704
lfoot -31.145 11.9698
ltoes -27.1495
